<?xml version="1.0" encoding="utf-8"?>
<!-- Generator: Adobe Illustrator 16.0.0, SVG Export Plug-In . SVG Version: 6.00 Build 0)  -->
<!DOCTYPE svg PUBLIC "-//W3C//DTD SVG 1.1//EN" "http://www.w3.org/Graphics/SVG/1.1/DTD/svg11.dtd">
<svg version="1.1" id="Layer_1" xmlns="http://www.w3.org/2000/svg" xmlns:xlink="http://www.w3.org/1999/xlink" x="0px" y="0px"
     width="1801.28px" height="161.765px" viewBox="0 0 1801.28 161.765" enable-background="new 0 0 1801.28 161.765"
     xml:space="preserve">
<g>
    <path fill="#FFFFFF" d="M72.589,53.304c-1.606-0.779-3.47-1.616-5.561-2.5c-2.11-0.885-4.506-1.683-7.205-2.377
        c-2.699-0.693-5.74-1.283-9.124-1.758c-3.384-0.476-7.129-0.713-11.254-0.713c-4.99,0-9.429,0.295-13.326,0.865
        c-3.896,0.57-7.204,1.473-9.904,2.689c-2.699,1.207-4.752,2.747-6.178,4.6c-1.426,1.854-2.129,4.059-2.129,6.606
        c0,2.148,0.665,4.021,2.005,5.627c1.341,1.606,3.156,3.022,5.446,4.259c2.281,1.234,4.962,2.356,8.032,3.373
        c3.07,1.008,6.33,1.949,9.771,2.843c3.441,0.884,6.986,1.777,10.637,2.681c3.649,0.912,7.186,1.891,10.636,2.937
        c3.44,1.056,6.7,2.224,9.771,3.526c3.07,1.293,5.751,2.813,8.032,4.543c2.29,1.73,4.105,3.707,5.446,5.932
        c1.34,2.224,2.005,4.79,2.005,7.718c0,3.175-0.589,5.94-1.787,8.308c-1.197,2.375-2.813,4.41-4.847,6.121
        c-2.034,1.711-4.43,3.127-7.167,4.258c-2.737,1.141-5.665,2.033-8.782,2.689c-3.099,0.656-6.312,1.122-9.639,1.389
        c-3.308,0.275-6.577,0.408-9.79,0.408c-7.366,0-14.048-0.542-20.036-1.616c-6.007-1.064-11.71-2.528-17.146-4.382v-9.457
        c5.599,3.346,11.52,5.627,17.755,6.862s12.804,1.854,19.676,1.854c4.866,0,9.353-0.294,13.478-0.864
        c4.115-0.57,7.68-1.492,10.684-2.748c3.003-1.264,5.342-2.898,7.015-4.914c1.673-2.014,2.499-4.486,2.499-7.413
        c0-2.348-0.675-4.41-2.005-6.179c-1.341-1.768-3.156-3.326-5.437-4.666c-2.281-1.34-4.962-2.52-8.042-3.546
        c-3.061-1.036-6.311-1.995-9.723-2.88c-3.413-0.884-6.948-1.748-10.599-2.595c-3.649-0.837-7.176-1.759-10.588-2.747
        c-3.422-0.988-6.673-2.101-9.733-3.336c-3.069-1.236-5.74-2.689-8.041-4.354c-2.281-1.673-4.087-3.593-5.437-5.779
        C0.665,66.382,0,63.854,0,60.964c0-2.832,0.532-5.36,1.597-7.566c1.074-2.205,2.548-4.105,4.43-5.712
        c1.862-1.606,4.059-2.956,6.577-4.049c2.509-1.093,5.189-1.948,8.06-2.595c2.861-0.637,5.837-1.103,8.926-1.388
        s6.13-0.438,9.144-0.438c3.298,0,6.416,0.152,9.362,0.438s5.778,0.665,8.517,1.141c2.746,0.476,5.417,1.026,8.041,1.635
        c2.613,0.627,5.266,1.283,7.937,1.977V53.304z"/>
    <path fill="#FFFFFF" d="M448.971,125.711V40.823h7.718v77.664h62.028v7.224H448.971z"/>
    <path fill="#FFFFFF" d="M736.844,125.711l-11.682-22.431h-57.638l-11.682,22.431h-8.459L691.8,40.823h9.087l44.416,84.888H736.844z
         M696.372,48.304l-25.084,47.942h50.11L696.372,48.304z"/>
    <path fill="#FFFFFF" d="M873.285,89.384v36.327h-7.718V40.823h42.259c6.463,0,11.995,0.504,16.614,1.512
        c4.619,1.007,8.402,2.537,11.349,4.571c2.928,2.044,5.095,4.591,6.444,7.632c1.369,3.042,2.034,6.616,2.034,10.684
        c0,6.35-1.654,11.426-5,15.236c-3.326,3.812-8.706,6.416-16.12,7.813l28.971,37.439h-9.694L915.05,89.136
        c-1.16,0.076-2.319,0.143-3.518,0.191c-1.197,0.037-2.433,0.057-3.706,0.057H873.285z M936.359,65.222
        c0-3.621-0.627-6.558-1.901-8.801c-1.292-2.243-3.364-3.982-6.254-5.219c-2.89-1.235-6.672-2.072-11.349-2.5
        c-4.677-0.437-10.417-0.646-17.223-0.646h-26.348v34.103h26.101c6.806,0,12.546-0.199,17.261-0.588
        c4.695-0.4,8.497-1.198,11.425-2.415c2.928-1.216,5.057-2.927,6.349-5.123C935.713,71.828,936.359,68.892,936.359,65.222z"/>
    <path fill="#FFFFFF" d="M1157.889,125.711l-73.776-74.755v74.755h-7.718V40.823h8.525l73.768,75.003V40.823h7.604v84.888H1157.889z
        "/>
    <path fill="#FFFFFF" d="M1298.009,125.711V40.823h70.744v7.233h-62.342v29.218h59.196v7.043h-59.196v34.17h63.264v7.224H1298.009z"
        />
    <path fill="#FFFFFF" d="M1579.076,53.304c-1.597-0.779-3.46-1.616-5.551-2.5c-2.11-0.885-4.505-1.683-7.204-2.377
        c-2.7-0.693-5.741-1.283-9.125-1.758c-3.384-0.476-7.129-0.713-11.254-0.713c-4.999,0-9.429,0.295-13.326,0.865
        c-3.896,0.57-7.204,1.473-9.903,2.689c-2.699,1.207-4.753,2.747-6.179,4.6c-1.426,1.854-2.129,4.059-2.129,6.606
        c0,2.148,0.665,4.021,1.996,5.627c1.35,1.606,3.155,3.022,5.456,4.259c2.281,1.234,4.961,2.356,8.041,3.373
        c3.061,1.008,6.312,1.949,9.752,2.843c3.46,0.884,6.995,1.777,10.646,2.681c3.649,0.912,7.186,1.891,10.626,2.937
        c3.46,1.056,6.711,2.224,9.771,3.526c3.079,1.293,5.76,2.813,8.041,4.543c2.3,1.73,4.106,3.707,5.456,5.932
        c1.33,2.224,1.996,4.79,1.996,7.718c0,3.175-0.59,5.94-1.787,8.308c-1.198,2.375-2.813,4.41-4.848,6.121s-4.43,3.127-7.167,4.258
        c-2.737,1.141-5.665,2.033-8.782,2.689c-3.099,0.656-6.312,1.122-9.638,1.389c-3.308,0.275-6.577,0.408-9.79,0.408
        c-7.376,0-14.049-0.542-20.036-1.616c-6.008-1.064-11.71-2.528-17.147-4.382v-9.457c5.589,3.346,11.521,5.627,17.756,6.862
        c6.234,1.235,12.793,1.854,19.675,1.854c4.866,0,9.353-0.294,13.478-0.864c4.106-0.57,7.68-1.492,10.684-2.748
        c3.004-1.264,5.342-2.898,7.015-4.914c1.673-2.014,2.49-4.486,2.49-7.413c0-2.348-0.665-4.41-1.996-6.179
        c-1.35-1.768-3.155-3.326-5.437-4.666s-4.962-2.52-8.041-3.546c-3.061-1.036-6.312-1.995-9.733-2.88
        c-3.402-0.884-6.938-1.748-10.588-2.595c-3.65-0.837-7.167-1.759-10.589-2.747s-6.672-2.101-9.732-3.336
        c-3.08-1.236-5.741-2.689-8.042-4.354c-2.28-1.673-4.087-3.593-5.437-5.779c-1.33-2.186-1.996-4.714-1.996-7.604
        c0-2.832,0.532-5.36,1.597-7.566c1.084-2.205,2.548-4.105,4.43-5.712c1.863-1.606,4.068-2.956,6.577-4.049
        c2.51-1.093,5.189-1.948,8.061-2.595c2.852-0.637,5.836-1.103,8.915-1.388c3.099-0.285,6.141-0.438,9.144-0.438
        c3.308,0,6.426,0.152,9.372,0.438s5.779,0.665,8.517,1.141s5.418,1.026,8.041,1.635c2.604,0.627,5.266,1.283,7.927,1.977V53.304z"
        />
    <path fill="#FFFFFF" d="M1762.672,47.866v77.845h-7.661V47.866h-38.608v-7.043h84.878v7.043H1762.672z"/>
    <g>
        <path fill="#FFFFFF" d="M313.493,83.263c0,7.613-1.388,14.2-4.145,19.741c-2.756,5.532-6.539,10.113-11.349,13.716
            c-4.828,3.602-10.512,6.264-17.052,7.993c-6.539,1.729-13.61,2.604-21.177,2.604c-7.623,0-14.713-0.875-21.31-2.604
            c-6.577-1.729-12.3-4.392-17.166-7.993c-4.848-3.603-8.649-8.184-11.425-13.716c-2.756-5.541-4.125-12.128-4.125-19.741
            c0-5.066,0.627-9.666,1.92-13.811c1.273-4.135,3.061-7.842,5.36-11.121c2.301-3.27,5.095-6.102,8.364-8.497
            c3.271-2.386,6.92-4.372,10.931-5.96c4.012-1.587,8.326-2.756,12.946-3.517c4.6-0.77,9.447-1.149,14.504-1.149
            c7.566,0,14.638,0.874,21.177,2.604c6.54,1.73,12.224,4.392,17.052,7.994c4.81,3.602,8.593,8.184,11.349,13.715
            C312.105,69.062,313.493,75.649,313.493,83.263z M305.585,83.263c0-6.017-0.988-11.32-2.946-15.939s-4.848-8.498-8.688-11.645
            c-3.821-3.154-8.593-5.541-14.295-7.166c-5.723-1.625-12.338-2.443-19.885-2.443s-14.181,0.818-19.941,2.472
            c-5.74,1.653-10.55,4.05-14.428,7.195c-3.878,3.155-6.806,7.043-8.783,11.682c-1.977,4.629-2.965,9.913-2.965,15.845
            c0,6.016,0.988,11.32,2.965,15.939c1.978,4.619,4.905,8.497,8.783,11.644c3.878,3.155,8.688,5.541,14.428,7.167
            c5.761,1.625,12.395,2.442,19.941,2.442s14.162-0.817,19.885-2.442c5.702-1.626,10.474-4.012,14.295-7.167
            c3.84-3.146,6.729-7.024,8.688-11.644S305.585,89.278,305.585,83.263z"/>
        <g>
            <g>
                <path fill="#FFFFFF" d="M259.612,161.765c-3.004,0-5.451-2.139-5.451-4.766c0-2.629,2.447-4.771,5.451-4.771
                    c3.009,0,5.456,2.143,5.456,4.771C265.068,159.626,262.621,161.765,259.612,161.765z"/>
            </g>
            <g>
                <path fill="#FFFFFF" d="M259.61,19.076c-6.008,0-10.902-4.286-10.902-9.543c0-5.256,4.895-9.533,10.902-9.533
                    c6.017,0,10.911,4.277,10.911,9.533C270.521,14.79,265.627,19.076,259.61,19.076z"/>
            </g>
            <g>
                <path fill="#FFFFFF" d="M356.474,92.796c-6.016,0-10.921-4.268-10.921-9.523c0-5.266,4.905-9.543,10.921-9.543
                    c6.017,0,10.912,4.277,10.912,9.543C367.386,88.528,362.49,92.796,356.474,92.796z"/>
            </g>
            <g>
                <path fill="#FFFFFF" d="M162.758,88.029c-3.008,0-5.456-2.134-5.456-4.762c0-2.633,2.448-4.771,5.456-4.771
                    c3.013,0,5.461,2.139,5.461,4.771C168.219,85.896,165.771,88.029,162.758,88.029z"/>
            </g>
            <g>
                <path fill="#FFFFFF" d="M325.346,141.87c-2.024,0-3.916-0.694-5.332-1.949c-1.378-1.217-2.129-2.822-2.129-4.515
                    c0-1.702,0.751-3.308,2.129-4.515c1.416-1.265,3.308-1.959,5.332-1.959c2.015,0,3.906,0.694,5.322,1.949
                    c1.379,1.217,2.13,2.822,2.13,4.524c0,1.692-0.751,3.298-2.13,4.505C329.252,141.176,327.36,141.87,325.346,141.87z"/>
            </g>
            <g>
                <path fill="#FFFFFF" d="M193.894,37.601c-2.024,0-3.916-0.693-5.332-1.948c-1.379-1.216-2.129-2.823-2.129-4.524
                    c0-1.691,0.75-3.298,2.129-4.505c1.416-1.265,3.308-1.958,5.332-1.958c2.015,0,3.906,0.693,5.322,1.948
                    c1.379,1.217,2.13,2.823,2.13,4.515c0,1.701-0.751,3.309-2.13,4.516C197.8,36.907,195.908,37.601,193.894,37.601z"/>
            </g>
            <g>
                <path fill="#FFFFFF" d="M325.35,44.068c-4.049,0-7.832-1.387-10.664-3.896c-2.756-2.432-4.258-5.646-4.258-9.049
                    c0-3.383,1.502-6.596,4.258-9.01c2.832-2.529,6.615-3.916,10.664-3.916c4.029,0,7.812,1.387,10.645,3.896
                    c2.758,2.434,4.26,5.646,4.26,9.029c0,3.402-1.502,6.617-4.26,9.031C333.163,42.682,329.379,44.068,325.35,44.068z"/>
            </g>
            <g>
                <path fill="#FFFFFF" d="M193.892,138.636c-1.013,0-1.958-0.348-2.666-0.975c-0.689-0.608-1.064-1.411-1.064-2.258
                    c0-0.851,0.375-1.653,1.064-2.257c0.708-0.632,1.653-0.979,2.666-0.979c1.007,0,1.953,0.348,2.661,0.975
                    c0.689,0.608,1.064,1.411,1.064,2.262c0,0.847-0.375,1.649-1.064,2.253C195.845,138.288,194.898,138.636,193.892,138.636z"/>
            </g>
        </g>
    </g>
</g>
</svg>
